<svg viewBox="0 0 1920 1080" xmlns:xlink="http://www.w3.org/1999/xlink" xmlns="http://www.w3.org/2000/svg"><defs><linearGradient id="a"><stop style="stop-color:#3cc600" offset="0"/><stop style="stop-color:#009bd3" offset="1"/></linearGradient></defs><path style="fill:url(#a)" d="M0 0h1920v1080H0z"/><path style="fill:#fff" d="M960 283 737 412v256l223 129 223-129V412zm0 104c26 0 24 77 44 93 20 14 93-12 101 14 8 24-65 44-73 70-8 24 38 84 16 98-20 17-62-46-88-46s-68 63-88 46c-22-14 24-74 16-98-8-26-81-46-73-70 8-26 81 0 101-14 20-16 18-93 44-93z"/></svg>