<svg xmlns:xlink="http://www.w3.org/1999/xlink" xmlns="http://www.w3.org/2000/svg" viewBox="0 0 1920 1080"><defs><linearGradient id="a"><stop style="stop-color:#3cc600" offset="0"/><stop style="stop-color:#009bd3" offset="1"/></linearGradient><linearGradient xlink:href="#a" id="b" x1="0" x2="1920" gradientUnits="userSpaceOnUse"/></defs><rect style="fill:url(#b)" width="1920" height="1080"/><path d="M961 285 739 413v254l222 128 220-128V413Zm0 86c18 0 28 92 48 102 16 8 106-4 112 16 4 18-80 54-82 76-4 18 34 100 20 112-16 10-78-58-98-54-20 2-86 64-100 54-16-12 28-94 20-112-10-18-88-58-82-76 4-20 96-2 112-16 12-14 30-102 50-102z" style="fill:#fff"/></svg>